<svg width="72" height="72" viewBox="0 0 72 72" fill="none" xmlns="http://www.w3.org/2000/svg">
<path d="M71.9999 70.7999V29.849C71.9999 29.4504 71.8023 29.0781 71.4723 28.8552C71.1423 28.6319 70.7233 28.5869 70.3537 28.7352C69.9567 28.9029 69.5737 29.1017 69.2078 29.3293C68.6228 29.7526 67.9221 29.9867 67.1999 30.0001C63.8399 30.0001 62.1116 28.7186 60.1065 27.2401C57.8169 25.2483 54.9079 24.111 51.8747 24.0204C52.479 23.1316 52.8015 22.0816 52.7999 21.0069V16.6489C52.7983 16.0516 52.5599 15.4789 52.1367 15.0574C51.7135 14.6358 51.1403 14.3995 50.543 14.4001H37.1999V9.60006H43.3055C44.8848 9.59202 46.3955 8.95399 47.5024 7.82735C48.6091 6.70075 49.2203 5.17926 49.2001 3.60006C49.2001 3.28184 49.0736 2.97648 48.8486 2.75148C48.6236 2.52649 48.3183 2.40006 48.0001 2.40006H40.6944C39.4334 2.40381 38.2076 2.81576 37.2 3.57381V1.2C37.2 0.537326 36.6627 0 36 0C35.3374 0 34.8 0.537326 34.8 1.2V14.4H21.4511C20.7306 14.4016 20.0544 14.7477 19.6318 15.3311C19.2048 15.923 19.0869 16.6838 19.3152 17.377L20.3282 20.4691V20.4697C20.7766 21.8304 21.5566 23.0582 22.5969 24.0435C22.2691 24.0231 21.9466 24.0001 21.5877 24.0001H21.5882C18.4542 24.0199 15.4334 25.1706 13.08 27.2401C11.0796 28.7197 9.35299 30.0001 5.99999 30.0001C4.51926 30.0981 3.04552 29.7312 1.78339 28.9512C1.41161 28.7444 0.958396 28.7503 0.591429 28.9656C0.224997 29.1815 0 29.5747 0 30.0001V70.8001C0.00321435 70.9394 0.0310711 71.0771 0.0814286 71.2067C0.0948214 71.2415 0.1425 71.3653 0.158036 71.3926L0.158571 71.3931C0.210536 71.4831 0.27375 71.5662 0.346608 71.6401C0.44518 71.7344 0.558754 71.811 0.683033 71.8667C0.715176 71.8812 0.746782 71.8946 0.779997 71.9063C0.912854 71.9631 1.05535 71.9953 1.2 72.0001H70.8C70.942 71.9974 71.0823 71.969 71.2141 71.916C71.2473 71.9042 71.2795 71.8908 71.3111 71.8753C71.4354 71.8206 71.5495 71.744 71.647 71.6497L71.6555 71.639C71.7268 71.5667 71.7884 71.4864 71.8393 71.399C71.8548 71.3712 71.9041 71.2469 71.9175 71.2105H71.917C71.9689 71.0797 71.9968 70.941 72 70.8001L71.9999 70.7999ZM40.6943 4.79985H46.6247C46.3938 5.49788 45.9486 6.10538 45.3529 6.53608C44.7572 6.96678 44.0409 7.19929 43.3053 7.19982H37.375C37.6059 6.50179 38.0511 5.89429 38.6468 5.46359C39.2425 5.0329 39.9588 4.80039 40.6943 4.79985ZM21.5999 16.7999H50.3999V21.0068C50.394 21.8051 50.0716 22.5685 49.5042 23.1294C48.9364 23.6903 48.1692 24.0037 47.371 23.9999H28.4398C27.1401 23.9941 25.8759 23.5767 24.828 22.808C23.7801 22.0392 23.0027 20.9588 22.6064 19.7206L21.5999 16.7999ZM43.4687 26.3999L43.1821 26.5681H43.1816C41.0762 28.037 38.567 28.8169 35.9998 28.7998C33.6319 28.8909 31.3128 28.1136 29.478 26.6146C29.3773 26.5439 29.2702 26.4715 29.1662 26.3997L43.4687 26.3999ZM5.99993 32.3999C9.13392 32.3806 12.1559 31.2299 14.5092 29.1599C16.5085 27.6765 18.2351 26.3999 21.5892 26.3999C23.9566 26.3088 26.2762 27.0861 28.1111 28.5851C30.3503 30.3594 33.1446 31.2852 35.9999 31.1999C38.9977 31.2159 41.9292 30.3207 44.4058 28.6316C46.5107 27.1632 49.0189 26.3831 51.5855 26.3999C54.9455 26.3999 56.6748 27.6813 58.679 29.1599C61.0372 31.2293 64.0624 32.3796 67.2001 32.3999C68.032 32.4079 68.8539 32.2204 69.6001 31.8529V66.3375L63.6001 55.9885V43.2005C63.6001 41.9143 62.9138 40.726 61.8001 40.0827C60.6863 39.4398 59.3138 39.4398 58.2001 40.0827C57.0863 40.7261 56.4001 41.9142 56.4001 43.2005V45.2164L54.0001 41.6405V32.4005C54.0001 31.1143 53.3138 29.926 52.2001 29.2827C51.0863 28.6398 49.7138 28.6398 48.6001 29.2827C47.4863 29.9261 46.8001 31.1142 46.8001 32.4005V40.8005H25.2001V32.4005C25.2001 31.1143 24.5138 29.926 23.4001 29.2827C22.2863 28.6398 20.9138 28.6398 19.8001 29.2827C18.6863 29.9261 18.0001 31.1142 18.0001 32.4005V41.6405L15.6001 45.2405V43.2005C15.6001 41.9143 14.9138 40.726 13.8001 40.0827C12.6863 39.4398 11.3138 39.4398 10.2001 40.0827C9.08632 40.7261 8.40007 41.9142 8.40007 43.2005V56.0753L2.40007 66.3605V31.8896C3.5615 32.2673 4.77977 32.4404 6.00007 32.4007L5.99993 32.3999ZM15.5999 55.1999V49.5599L19.8418 43.1999H52.1609L56.4005 49.5278V55.1999H15.5999ZM13.1999 44.3999H10.7999V43.1999C10.7999 42.5372 11.3373 41.9999 11.9999 41.9999C12.6626 41.9999 13.1999 42.5372 13.1999 43.1999V44.3999ZM10.7999 46.7999H13.1999V55.1999H10.7999V46.7999ZM20.3999 35.9999H22.7999V40.7999H20.3999V35.9999ZM22.7999 33.5999H20.3999V32.3999C20.3999 31.7372 20.9373 31.1999 21.5999 31.1999C22.2626 31.1999 22.7999 31.7372 22.7999 32.3999V33.5999ZM51.5999 33.5999H49.1999V32.3999C49.1999 31.7372 49.7373 31.1999 50.3999 31.1999C51.0626 31.1999 51.5999 31.7372 51.5999 32.3999V33.5999ZM49.1999 35.9999H51.5999V40.7999H49.1999V35.9999ZM61.1999 44.3999H58.7999V43.1999C58.7999 42.5372 59.3373 41.9999 59.9999 41.9999C60.6626 41.9999 61.1999 42.5372 61.1999 43.1999V44.3999ZM58.7999 46.7999H61.1999V55.1999H58.7999V46.7999ZM3.28862 69.5999L10.2883 57.5999H61.7593L68.7193 69.5999H3.28862Z" fill="#EE4E34"/>
</svg>
