<svg width="522" height="120" viewBox="0 0 522 120" fill="none" xmlns="http://www.w3.org/2000/svg">
<path d="M118.825 50.8906C119.202 50.3916 120 50.6585 120 51.2823V98.4334C120 110.345 110.346 120 98.4345 120H80.5183C80.3762 120 80.2369 119.954 80.1238 119.869L72.6075 114.195C68.4765 111.076 64.4181 107.757 60.5454 104.328C60.2147 104.035 60.264 103.507 60.6411 103.281C83.2945 89.6461 102.873 72.0192 118.825 50.8906ZM59.3589 16.7189C59.736 16.4926 59.7853 15.9617 59.4546 15.6716C55.579 12.2454 51.5206 8.9266 47.3925 5.80505L39.8762 0.130547C39.7631 0.0464163 39.6239 0 39.4817 0H21.5655C9.6543 0 0 9.65477 0 21.5666V68.7177C0 69.3444 0.797758 69.6113 1.17488 69.1123C17.13 47.9838 36.7055 30.3568 59.3589 16.7218V16.7189Z" fill="white"/>
<path d="M119.997 21.5661V39.4827C119.997 39.6248 119.951 39.7641 119.867 39.8772L114.192 47.3937C111.074 51.5247 107.755 55.5832 104.326 59.4561C104.033 59.7868 103.505 59.7375 103.279 59.3603C89.6446 36.7064 72.0186 17.1275 50.8911 1.17491C50.3921 0.797777 50.659 0 51.2856 0H98.4345C110.346 0 120 9.65454 120 21.5661H119.997ZM16.7181 60.6397C16.4918 60.2625 15.9609 60.2132 15.6708 60.5439C12.2419 64.4197 8.92327 68.4782 5.80477 72.6063L0.130541 80.1228C0.046414 80.2359 0 80.3752 0 80.5173V98.4339C0 110.345 9.65431 120 21.5655 120H68.7144C69.341 120 69.6079 119.202 69.1089 118.825C47.9814 102.87 30.3554 83.2936 16.721 60.6397H16.7181Z" fill="white"/>
<path d="M521.53 49.6011H507.277V86.7672C507.277 90.4948 508.812 92.0297 513.636 92.0297H518.46V100.033H512.978C502.453 100.033 498.726 96.5247 498.726 86.6576V49.6011H489.955V41.9267H498.726V28.7705H507.277V41.9267H521.53V49.6011Z" fill="white"/>
<path d="M464.009 101.678C448.112 101.678 437.148 89.2894 437.148 70.9804C437.148 52.6714 448.112 40.2827 464.009 40.2827C477.384 40.2827 487.142 48.5053 489.335 61.4422L481.002 63.1964C479.358 53.6581 473.109 48.286 464.009 48.286C453.045 48.286 445.7 57.2761 445.7 70.9804C445.7 84.6847 453.045 93.6748 464.009 93.6748C473.109 93.6748 479.358 88.3027 481.002 78.7645L489.335 80.5186C487.142 93.4555 477.384 101.678 464.009 101.678Z" fill="white"/>
<path d="M406.338 101.678C394.607 101.678 387.262 95.3193 387.262 85.2329C387.262 75.3658 393.072 70.3226 407.654 66.8143C418.836 64.0734 422.454 61.6615 422.454 56.9472C422.454 51.5751 417.74 48.0668 410.504 48.0668C402.83 48.0668 397.458 52.7811 395.923 60.5651L387.262 58.9206C389.235 47.5186 398.335 40.2827 410.504 40.2827C423.551 40.2827 431.444 47.5186 431.444 59.1399V100.034H423.441V93.8941H423.222C419.933 98.718 413.684 101.678 406.338 101.678ZM406.996 93.6748C416.315 93.6748 422.893 88.0834 422.893 80.409V67.3625H422.674C421.468 70.213 417.74 72.1864 409.956 74.1598C399.76 76.791 395.813 79.6415 395.813 84.6847C395.813 90.4954 399.76 93.6748 406.996 93.6748Z" fill="white"/>
<path d="M359.433 100.034V41.9271H367.546V46.7511H367.765C369.958 43.1331 374.233 40.9404 379.825 40.9404C381.908 40.9404 383.662 41.2693 385.635 41.8175L383.772 50.6979C381.688 50.0401 380.044 49.7112 378.071 49.7112C371.383 49.7112 367.984 54.2062 367.984 65.1697V100.034H359.433Z" fill="white"/>
<path d="M352.064 49.6011H337.812V86.7672C337.812 90.4948 339.346 92.0297 344.17 92.0297H348.994V100.033H343.513C332.988 100.033 329.26 96.5247 329.26 86.6576V49.6011H320.489V41.9267H329.26V28.7705H337.812V41.9267H352.064V49.6011Z" fill="white"/>
<path d="M268.575 100.034L288.529 70.4323L269.233 41.9272H279.319L293.572 63.7445H293.791L308.153 41.9272H318.24L298.834 70.4323L318.897 100.034H308.811L293.791 77.12H293.572L278.662 100.034H268.575Z" fill="white"/>
<path d="M242.595 101.678C226.479 101.678 215.734 89.2894 215.734 70.9804C215.734 52.6714 226.588 40.2827 242.595 40.2827C258.273 40.2827 268.578 51.904 268.578 69.1166V73.502H224.396C224.615 84.5751 231.631 93.8941 242.376 93.8941C250.598 93.8941 255.203 90.8243 260.136 82.2728L267.263 86.5485C262.219 96.5253 253.778 101.678 242.595 101.678ZM224.615 66.595H259.917C259.588 56.1797 252.901 48.0668 242.595 48.0668C232.508 48.0668 224.834 56.8375 224.615 66.595Z" fill="white"/>
<path d="M201.003 20H209.555V100.033H201.003V49.6014H178.528V100.033H169.977V49.6014H160V41.9269H169.977V35.5681C169.977 28.113 174.801 23.289 183.023 23.289H191.575V31.2924H184.01C180.282 31.2924 178.528 33.0465 178.528 36.7741V41.9269H201.003V20Z" fill="white"/>
</svg>
