<svg width="120" height="120" viewBox="0 0 120 120" fill="none" xmlns="http://www.w3.org/2000/svg">
<path d="M118.825 50.8906C119.202 50.3916 120 50.6585 120 51.2823V98.4334C120 110.345 110.346 120 98.4345 120H80.5183C80.3762 120 80.2369 119.954 80.1238 119.869L72.6075 114.195C68.4765 111.076 64.4181 107.757 60.5454 104.328C60.2147 104.035 60.264 103.507 60.6411 103.281C83.2945 89.6461 102.873 72.0192 118.825 50.8906ZM59.3589 16.7189C59.736 16.4926 59.7853 15.9617 59.4546 15.6716C55.579 12.2454 51.5206 8.9266 47.3925 5.80505L39.8762 0.130547C39.7631 0.0464163 39.6239 0 39.4817 0H21.5655C9.6543 0 0 9.65477 0 21.5666V68.7177C0 69.3444 0.797758 69.6113 1.17488 69.1123C17.13 47.9838 36.7055 30.3568 59.3589 16.7218V16.7189Z" fill="#ED33CB"/>
<path d="M119.997 21.5661V39.4827C119.997 39.6248 119.951 39.7641 119.867 39.8772L114.192 47.3937C111.074 51.5247 107.755 55.5832 104.326 59.4561C104.033 59.7868 103.505 59.7375 103.279 59.3603C89.6446 36.7064 72.0186 17.1275 50.8911 1.17491C50.3921 0.797777 50.659 0 51.2856 0H98.4345C110.346 0 120 9.65454 120 21.5661H119.997ZM16.7181 60.6397C16.4918 60.2625 15.9609 60.2132 15.6708 60.5439C12.2419 64.4197 8.92327 68.4782 5.80477 72.6063L0.130541 80.1228C0.046414 80.2359 0 80.3752 0 80.5173V98.4339C0 110.345 9.65431 120 21.5655 120H68.7144C69.341 120 69.6079 119.202 69.1089 118.825C47.9814 102.87 30.3554 83.2936 16.721 60.6397H16.7181Z" fill="#ED33CB"/>
</svg>
